<?xml version="1.0" encoding="UTF-8" standalone="no"?>
<svg
   width="210.7379pt"
   height="212.97095pt"
   viewBox="0 0 210.7379 212.97095"
   version="1.1"
   id="svg44"
   sodipodi:docname="hayden.svg"
   inkscape:version="1.2 (dc2aedaf03, 2022-05-15)"
   xmlns:inkscape="http://www.inkscape.org/namespaces/inkscape"
   xmlns:sodipodi="http://sodipodi.sourceforge.net/DTD/sodipodi-0.dtd"
   xmlns="http://www.w3.org/2000/svg"
   xmlns:svg="http://www.w3.org/2000/svg">
  <defs
     id="defs48" />
  <sodipodi:namedview
     id="namedview46"
     pagecolor="#ffffff"
     bordercolor="#000000"
     borderopacity="0.25"
     inkscape:showpageshadow="2"
     inkscape:pageopacity="0.0"
     inkscape:pagecheckerboard="0"
     inkscape:deskcolor="#d1d1d1"
     inkscape:document-units="pt"
     showgrid="false"
     inkscape:zoom="1.65"
     inkscape:cx="105.75758"
     inkscape:cy="138.78788"
     inkscape:window-width="1920"
     inkscape:window-height="1027"
     inkscape:window-x="1912"
     inkscape:window-y="-8"
     inkscape:window-maximized="1"
     inkscape:current-layer="svg44" />
  <g
     id="#020304ff"
     transform="translate(-85.644064,-88.421047)" />
  <g
     id="#4daebfff"
     transform="translate(-85.644064,-88.421047)">
    <path
       fill="#4daebf"
       opacity="1"
       d="m 175.3,89.14 c 9.18,-1.12 18.48,-0.61 27.7,-0.56 16.14,1.69 31.9,7.15 45.7,15.69 23.97,15.11 41.76,39.91 47.64,67.7 0.46,5.27 -3.02,10.53 -7.94,12.37 -3.63,1.43 -7.6,0.95 -11.4,0.98 -7.02,-0.18 -14.05,0.18 -21.07,-0.04 -3.54,-0.06 -6.46,-2.7 -7.09,-6.14 -3.24,-12.06 -10.69,-22.8 -20.56,-30.4 -2.2,-1.9 -5.11,-3.67 -5.74,-6.72 -1.01,-6.79 6.8,-11.27 5.77,-18.02 -0.53,-3.54 -4.32,-4.83 -7.15,-6.12 -9.31,-3.45 -19.24,-5.28 -29.17,-5.34 -6.5,-0.1 -12.95,1.85 -19.46,0.97 -7.14,-1.77 -11.45,-11.01 -7.55,-17.44 1.93,-3.96 5.98,-6.52 10.32,-6.93 z"
       id="path27" />
    <path
       fill="#4daebf"
       opacity="1"
       d="m 133.36,107.33 c 5.73,-1.03 11.36,2.58 13.36,7.93 3.28,8.17 7.38,15.97 11.14,23.92 1.69,3.56 0.37,7.68 -2.75,9.93 -9.46,7.76 -16.7,18.37 -19.77,30.27 -0.71,2.99 -3.18,5.47 -6.29,5.83 -5.13,0.55 -10.34,-0.49 -15.43,0.45 -1.32,0.91 -2.77,2.06 -3.17,3.68 -1.58,15.9 2,32.27 10.25,45.97 2.46,3.63 2.65,8.42 1.25,12.48 -2.95,7.16 -13.24,9.22 -19.01,4.31 -2.48,-2.01 -3.94,-4.93 -5.43,-7.68 -6.38,-12.58 -10.54,-26.34 -11.82,-40.4 -0.09,-5.67 -0.02,-11.35 -0.02,-17.03 1.94,-28.78 16.26,-56.52 38.7,-74.67 2.71,-2.07 5.31,-4.98 8.99,-4.99 z"
       id="path29" />
    <path
       fill="#4daebf"
       opacity="1"
       d="m 181.34,122.4 c 6.2,-0.9 12.5,-1.07 18.74,-0.56 3.74,0.25 6.9,3.45 7.19,7.17 -0.32,3.65 -3.18,7.71 -7.22,7.41 -6.35,-0.22 -12.71,-0.11 -19.05,0.27 -4.97,0.93 -8.97,-5.04 -6.88,-9.44 0.94,-3.12 4.16,-4.71 7.22,-4.85 z"
       id="path31" />
    <path
       fill="#4daebf"
       opacity="1"
       d="m 188.51,153.87 c 12.93,-2.17 26.2,3.24 35.43,12.19 4.83,5.14 8.27,11.42 10.55,18.06 3.97,14.96 -0.14,32.08 -11.57,42.79 -11.05,9.91 -27.53,14.58 -41.78,9.48 -17.52,-5.18 -30.89,-22.98 -29.72,-41.41 -0.06,-20.37 16.71,-39.16 37.09,-41.11 m 2.72,3.83 c -18.28,1.32 -34.38,16.82 -35.71,35.22 -1.15,15.74 8.31,31.88 23.05,37.89 7.17,3.77 15.51,2.92 23.3,2.61 14.54,-3.32 26.81,-15.69 29.54,-30.43 0.22,-7 1.03,-14.44 -2.35,-20.88 -5.59,-15.22 -21.75,-25.4 -37.83,-24.41 z"
       id="path33" />
    <path
       fill="#4daebf"
       opacity="1"
       d="m 191.44,167.54 c 13.12,-1.36 26.15,7.66 29.71,20.32 3.23,10.2 -0.16,22.08 -8.07,29.24 -9.37,9 -25.13,10.13 -35.65,2.46 -12.01,-7.89 -15.77,-25.41 -8.48,-37.68 4.36,-8.27 13.26,-13.61 22.49,-14.34 z"
       id="path35" />
    <path
       fill="#4daebf"
       opacity="1"
       d="m 123.5,206.51 c 1.96,-2.19 4.99,-1.99 7.66,-2.03 4.93,3.45 4.97,9.9 7.62,14.82 1.46,3.48 4.5,6.6 3.97,10.64 0.18,3.98 -3.88,7.44 -7.78,6.57 -3.09,0.1 -4.96,-2.81 -6.39,-5.12 -2.88,-5.18 -5.25,-10.67 -6.83,-16.39 -0.72,-2.87 -0.93,-6.53 1.75,-8.49 z"
       id="path37" />
    <path
       fill="#4daebf"
       opacity="1"
       d="m 248.98,209.97 c 0.86,-4.09 5.93,-6.81 9.7,-4.75 2.4,1.09 3.65,3.49 4.85,5.69 -1.88,7.88 -4.75,15.62 -9.19,22.42 -1.35,2.23 -3.71,3.71 -6.37,3.23 -5.5,0.33 -8.54,-6.87 -5.61,-11.12 3.11,-4.74 5.08,-10.05 6.62,-15.47 z"
       id="path39" />
    <path
       fill="#4daebf"
       opacity="1"
       d="m 279.34,205.35 c 7.72,-3.56 17.43,3.29 17.03,11.66 -0.34,4.95 -2.54,9.52 -3.94,14.23 -14.03,40.75 -55.31,70.24 -98.43,70.1 -20.99,0.69 -41.96,-5.52 -59.67,-16.68 -6.14,-3.98 -6.73,-13.84 -1.53,-18.84 5.95,-6.06 11.73,-12.28 17.75,-18.27 1.99,-2.01 4.53,-3.68 7.42,-3.87 2.72,0.84 5.13,2.44 7.66,3.72 12.83,6.8 28.24,7.85 42.18,4.22 5.95,-1.32 11.14,-4.62 16.54,-7.29 2.28,-1.38 5.16,-0.34 7.05,1.24 3.59,3.23 5.56,8.02 9.73,10.65 2.57,0.69 5.56,0.48 7.42,-1.63 11.57,-10.8 19.77,-25.1 23.53,-40.45 0.81,-3.9 3.75,-7.08 7.26,-8.79 z"
       id="path41" />
  </g>
</svg>
